<?xml version="1.0" encoding="UTF-8"?>
<svg xmlns="http://www.w3.org/2000/svg" xmlns:xlink="http://www.w3.org/1999/xlink" width="25pt" height="25pt" viewBox="0 0 25 25" version="1.1">
<g id="surface1">
<path style="fill-rule:nonzero;fill:rgb(100%,100%,100%);fill-opacity:1;stroke-width:10;stroke-linecap:butt;stroke-linejoin:miter;stroke:rgb(0%,0%,0%);stroke-opacity:1;stroke-miterlimit:4;" d="M 131 4.994375 C 96.489687 4.994375 65.213437 18.790312 42.370312 41.346875 C 19.527187 63.903437 4.994375 95.63 4.994375 131 C 4.994375 166.37 19.527187 198.096562 42.370312 220.653125 C 65.213437 243.209687 96.489687 257.005625 131 257.005625 C 165.510312 257.005625 196.786562 243.209687 219.629687 220.653125 C 242.472812 198.096562 257.005625 166.37 257.005625 131 C 257.005625 95.63 242.472812 63.903437 219.629687 41.346875 C 196.786562 18.790312 165.510312 4.994375 131 4.994375 Z M 131 4.994375 " transform="matrix(0.0954198,0,0,0.0954198,0,0)"/>
<path style=" stroke:none;fill-rule:nonzero;fill:rgb(0%,0%,0%);fill-opacity:1;" d="M 6.453125 6.53125 L 6.453125 18.445312 L 9.109375 18.445312 L 9.109375 9.738281 L 11.597656 16.128906 L 13.402344 16.148438 L 15.890625 9.761719 L 15.890625 18.46875 L 18.546875 18.46875 L 18.546875 6.554688 L 15 6.554688 L 12.507812 12.886719 L 10 6.53125 Z M 6.453125 6.53125 "/>
</g>
</svg>
